<svg xmlns="http://www.w3.org/2000/svg" width="96.286" height="95.699" viewBox="0 0 96.286 95.699">
  <defs>
    <style>
      .cls-1 {
        fill: #46485f;
        stroke: #474661;
      }
    </style>
  </defs>
  <g id="Grupo_4185" data-name="Grupo 4185" transform="translate(1002.536 0.499)">
    <path id="Caminho_1595" data-name="Caminho 1595" class="cls-1" d="M-954.327,301.887l-3.367-.571a20.12,20.12,0,0,0-1.316-3.178l1.984-2.775a3.305,3.305,0,0,0-.359-4.282l-3.112-3.112a3.3,3.3,0,0,0-2.349-.978,3.271,3.271,0,0,0-1.922.618l-2.786,1.984a19.917,19.917,0,0,0-3.3-1.359l-.561-3.323a3.318,3.318,0,0,0-3.282-2.776h-4.4a3.317,3.317,0,0,0-3.281,2.775l-.582,3.409a19.621,19.621,0,0,0-3.168,1.335l-2.753-1.982a3.286,3.286,0,0,0-1.933-.619,3.266,3.266,0,0,0-2.349.977l-3.123,3.113a3.317,3.317,0,0,0-.359,4.282l2.005,2.818a19.7,19.7,0,0,0-1.3,3.188l-3.324.561a3.317,3.317,0,0,0-2.776,3.282v4.4a3.317,3.317,0,0,0,2.775,3.281l3.41.582a19.59,19.59,0,0,0,1.335,3.168l-1.973,2.743a3.306,3.306,0,0,0,.36,4.282l3.112,3.112a3.3,3.3,0,0,0,2.349.977,3.27,3.27,0,0,0,1.922-.618l2.818-2.005a20.059,20.059,0,0,0,3.073,1.263l.561,3.367a3.317,3.317,0,0,0,3.281,2.776h4.407a3.317,3.317,0,0,0,3.281-2.775l.571-3.367a20.117,20.117,0,0,0,3.178-1.316l2.775,1.983a3.288,3.288,0,0,0,1.934.619,3.3,3.3,0,0,0,2.349-.977l3.112-3.112a3.317,3.317,0,0,0,.36-4.282l-1.984-2.786a19.971,19.971,0,0,0,1.317-3.177l3.366-.561a3.317,3.317,0,0,0,2.776-3.282v-4.394A3.274,3.274,0,0,0-954.327,301.887Zm-.5,7.443h-.01v.235a.037.037,0,0,1-.033.039l-4.387.731a1.639,1.639,0,0,0-1.316,1.207,16.5,16.5,0,0,1-1.792,4.316,1.657,1.657,0,0,0,.074,1.79l2.579,3.633a.051.051,0,0,1,0,.054l-3.112,3.112c-.015.015-.019.015-.032.015s-.009,0-.02-.009l-3.623-2.579a1.643,1.643,0,0,0-1.793-.074,16.508,16.508,0,0,1-4.312,1.791,1.612,1.612,0,0,0-1.209,1.317l-.742,4.39a.037.037,0,0,1-.039.03H-979a.037.037,0,0,1-.039-.033l-.731-4.387a1.639,1.639,0,0,0-1.207-1.316,17.125,17.125,0,0,1-4.224-1.731,1.69,1.69,0,0,0-.827-.219,1.611,1.611,0,0,0-.951.3l-3.647,2.595c-.021.012-.031.014-.029.015a.045.045,0,0,1-.032-.015l-3.112-3.112a.048.048,0,0,1-.006-.052l2.57-3.6a1.667,1.667,0,0,0,.072-1.8,16.307,16.307,0,0,1-1.813-4.307,1.669,1.669,0,0,0-1.315-1.2l-4.421-.753a.036.036,0,0,1-.03-.039v-4.4a.037.037,0,0,1,.034-.039l4.355-.731a1.647,1.647,0,0,0,1.327-1.219,16.449,16.449,0,0,1,1.761-4.325,1.633,1.633,0,0,0-.084-1.78l-2.6-3.654a.051.051,0,0,1,.005-.054l3.112-3.112c.022-.022.023-.028.052-.006l3.6,2.57a1.667,1.667,0,0,0,1.8.072,16.3,16.3,0,0,1,4.307-1.813,1.669,1.669,0,0,0,1.2-1.315l.753-4.421a.037.037,0,0,1,.039-.03h4.4a.037.037,0,0,1,.039.034l.731,4.355a1.648,1.648,0,0,0,1.219,1.327,16.74,16.74,0,0,1,4.419,1.813,1.658,1.658,0,0,0,1.792-.074l3.594-2.584c.021-.012.03-.014.029-.015a.046.046,0,0,1,.032.015l3.112,3.112a.048.048,0,0,1,.006.052l-2.579,3.623a1.644,1.644,0,0,0-.074,1.793,16.49,16.49,0,0,1,1.791,4.312,1.612,1.612,0,0,0,1.317,1.209l4.39.742a.037.037,0,0,1,.03.039Z" transform="translate(0 -237.899)"/>
    <path id="Caminho_1596" data-name="Caminho 1596" class="cls-1" d="M-900.356,372.725a11.036,11.036,0,0,0-11.023,11.023,11.036,11.036,0,0,0,11.023,11.024,11.036,11.036,0,0,0,11.023-11.024A11.036,11.036,0,0,0-900.356,372.725Zm0,18.757a7.742,7.742,0,0,1-7.734-7.733,7.742,7.742,0,0,1,7.734-7.733,7.742,7.742,0,0,1,7.733,7.733A7.742,7.742,0,0,1-900.356,391.482Z" transform="translate(-76.443 -314.286)"/>
    <path id="Caminho_1597" data-name="Caminho 1597" class="cls-1" d="M-801.785,29.649l-5.268-.894a29.744,29.744,0,0,0-2.117-5.111l3.1-4.343a4.623,4.623,0,0,0-.5-5.974l-4.672-4.672a4.6,4.6,0,0,0-3.277-1.364,4.556,4.556,0,0,0-2.681.862l-4.359,3.1a29.436,29.436,0,0,0-5.3-2.179l-.878-5.205A4.632,4.632,0,0,0-832.312,0h-6.6a4.632,4.632,0,0,0-4.578,3.873L-844.4,9.2a29.016,29.016,0,0,0-5.1,2.148l-4.312-3.1a4.6,4.6,0,0,0-2.7-.862,4.576,4.576,0,0,0-3.277,1.364l-4.688,4.672a4.641,4.641,0,0,0-.5,5.974l3.136,4.406a29.053,29.053,0,0,0-2.085,5.127l-5.205.878A4.632,4.632,0,0,0-873,34.384v6.537a7.188,7.188,0,0,1,2.708-.527h1.525v-6.01a.406.406,0,0,1,.345-.408l6.538-1.1a2.12,2.12,0,0,0,1.709-1.568,25.074,25.074,0,0,1,2.681-6.585,2.093,2.093,0,0,0-.11-2.289l-3.9-5.488a.427.427,0,0,1,.047-.533l4.672-4.672a.4.4,0,0,1,.3-.125.385.385,0,0,1,.235.078l5.409,3.857a2.146,2.146,0,0,0,2.32.094,24.863,24.863,0,0,1,6.554-2.759,2.147,2.147,0,0,0,1.552-1.693l1.129-6.632a.406.406,0,0,1,.408-.345h6.6a.406.406,0,0,1,.408.345l1.1,6.538a2.12,2.12,0,0,0,1.568,1.709,25.449,25.449,0,0,1,6.726,2.759,2.12,2.12,0,0,0,2.3-.094l5.409-3.888a.467.467,0,0,1,.235-.078.42.42,0,0,1,.3.125l4.672,4.672a.425.425,0,0,1,.047.533l-3.873,5.441a2.119,2.119,0,0,0-.094,2.3,25.1,25.1,0,0,1,2.728,6.569,2.081,2.081,0,0,0,1.693,1.552l6.585,1.113a.406.406,0,0,1,.345.408v6.6h-.016a.406.406,0,0,1-.345.408l-6.585,1.1a2.1,2.1,0,0,0-1.693,1.552,25.1,25.1,0,0,1-2.728,6.569,2.12,2.12,0,0,0,.094,2.3l3.873,5.456a.427.427,0,0,1-.047.533l-4.672,4.672a.4.4,0,0,1-.3.125.385.385,0,0,1-.235-.078l-5.44-3.873a2.119,2.119,0,0,0-2.3-.094A25.1,25.1,0,0,1-829.1,62.23a2.081,2.081,0,0,0-1.552,1.693l-1.113,6.585a.406.406,0,0,1-.408.345h-6.6a.427.427,0,0,1-.153-.029v.842a7.17,7.17,0,0,1-.8,3.294,4.682,4.682,0,0,0,.934.095h6.616a4.632,4.632,0,0,0,4.578-3.873l.894-5.268a29.75,29.75,0,0,0,5.111-2.117l4.343,3.1a4.6,4.6,0,0,0,2.7.862,4.6,4.6,0,0,0,3.277-1.364l4.672-4.672a4.641,4.641,0,0,0,.5-5.974l-3.1-4.359a29.53,29.53,0,0,0,2.117-5.111l5.268-.878a4.632,4.632,0,0,0,3.873-4.578v-6.6A4.576,4.576,0,0,0-801.785,29.649Z" transform="translate(-108.806)"/>
    <path id="Caminho_1598" data-name="Caminho 1598" class="cls-1" d="M-720.7,168.393a16.206,16.206,0,0,0,16.2-16.2A16.206,16.206,0,0,0-720.7,136a16.206,16.206,0,0,0-16.2,16.2A16.206,16.206,0,0,0-720.7,168.393Zm0-28.159A11.971,11.971,0,0,1-708.739,152.2,11.971,11.971,0,0,1-720.7,164.16,11.971,11.971,0,0,1-732.665,152.2,11.971,11.971,0,0,1-720.7,140.234Z" transform="translate(-223.568 -114.677)"/>
  </g>
</svg>
