<svg xmlns="http://www.w3.org/2000/svg" width="94.495" height="95.049" viewBox="0 0 94.495 95.049">
  <defs>
    <style>
      .cls-1 {
        fill: #46485f;
      }
    </style>
  </defs>
  <g id="Grupo_4186" data-name="Grupo 4186" transform="translate(-1.996 0)">
    <path id="Caminho_1599" data-name="Caminho 1599" class="cls-1" d="M114.736,145.112a4.269,4.269,0,0,1,1.731,3.467v14.606a8.012,8.012,0,0,0,8,8h13.885a8.012,8.012,0,0,0,8-8V148.579a4.282,4.282,0,0,1,1.735-3.471c22.107-15.991,11.123-51.2-16.286-51.568C103.807,93.14,92.427,128.974,114.736,145.112ZM131.73,99.236c21.724.29,30.814,28.381,13.025,41.259a9.984,9.984,0,0,0-4.094,8.084v2.111h-6.4V133.825a10.836,10.836,0,0,0,7.973-10.439v-7.973c0-3.762-5.7-3.769-5.7,0v7.973c0,6.825-10.252,6.83-10.252,0v-7.973c0-3.762-5.7-3.769-5.7,0v7.973a10.836,10.836,0,0,0,7.974,10.439V150.69h-6.4v-2.111a9.981,9.981,0,0,0-4.087-8.082C100.124,127.514,109.449,98.845,131.73,99.236Zm8.932,63.949a2.309,2.309,0,0,1-2.308,2.307H124.469a2.309,2.309,0,0,1-2.307-2.307v-6.8h18.5Z" transform="translate(-82.17 -76.139)"/>
    <path id="Caminho_1600" data-name="Caminho 1600" class="cls-1" d="M4.82,244.4h7.953c3.763,0,3.766-5.7,0-5.7H4.82C1.057,238.7,1.053,244.4,4.82,244.4Z" transform="translate(0 -194.301)"/>
    <path id="Caminho_1601" data-name="Caminho 1601" class="cls-1" d="M439.728,244.4h7.952c3.763,0,3.767-5.7,0-5.7h-7.952C435.964,238.7,435.961,244.4,439.728,244.4Z" transform="translate(-354.013 -194.301)"/>
    <path id="Caminho_1602" data-name="Caminho 1602" class="cls-1" d="M78.062,80.144c2.66,2.661,6.692-1.363,4.027-4.028l-5.623-5.623c-2.649-2.65-6.717,1.337-4.028,4.028Z" transform="translate(-56.621 -56.672)"/>
    <path id="Caminho_1603" data-name="Caminho 1603" class="cls-1" d="M246.394,10.776V2.824c0-3.763-5.7-3.767-5.7,0v7.952C240.7,14.539,246.394,14.543,246.394,10.776Z" transform="translate(-194.303)"/>
    <path id="Caminho_1604" data-name="Caminho 1604" class="cls-1" d="M384.037,80.209l5.623-5.623c2.711-2.711-1.421-6.635-4.028-4.028l-5.623,5.623C377.349,78.842,381.373,82.873,384.037,80.209Z" transform="translate(-306.991 -56.737)"/>
  </g>
</svg>
