<svg id="Grupo_4217" data-name="Grupo 4217" xmlns="http://www.w3.org/2000/svg" width="75.389" height="66.867" viewBox="0 0 75.389 66.867">
  <defs>
    <style>
      .cls-1 {
        fill: #37639e;
      }
    </style>
  </defs>
  <g id="Grupo_4218" data-name="Grupo 4218" transform="translate(17.633 8.741)">
    <g id="Grupo_4217-2" data-name="Grupo 4217" transform="translate(0)">
      <path id="Caminho_1614" data-name="Caminho 1614" class="cls-1" d="M153.388,40a29.413,29.413,0,0,0-4.441.337,2.185,2.185,0,0,0,.662,4.32,25,25,0,0,1,3.779-.287,24.679,24.679,0,0,1,18.886,40.581,21.893,21.893,0,0,0-11.408-9.546,10.674,10.674,0,0,0,3.229-7.653V65.622a10.707,10.707,0,1,0-21.415,0v2.131a10.673,10.673,0,0,0,3.229,7.653,21.9,21.9,0,0,0-11.431,9.585,24.612,24.612,0,0,1-5.442-11.811,2.185,2.185,0,0,0-4.31.723A29.065,29.065,0,1,0,153.388,40Zm-6.337,25.621a6.337,6.337,0,1,1,12.674,0v2.131a6.337,6.337,0,1,1-12.674,0Zm6.337,28.134a24.663,24.663,0,0,1-15.666-5.568,17.479,17.479,0,0,1,31.314-.037A24.578,24.578,0,0,1,153.388,93.756Z" transform="translate(-124.696 -40)"/>
    </g>
  </g>
  <g id="Grupo_4220" data-name="Grupo 4220" transform="translate(9.334 11.953)">
    <g id="Grupo_4219" data-name="Grupo 4219">
      <path id="Caminho_1615" data-name="Caminho 1615" class="cls-1" d="M103.085,55.341a2.186,2.186,0,0,0-3.091,0l-7.116,7.116-2.432-2.432a2.185,2.185,0,1,0-3.09,3.091l3.977,3.977a2.186,2.186,0,0,0,3.09,0l8.662-8.662A2.186,2.186,0,0,0,103.085,55.341Z" transform="translate(-86.716 -54.701)"/>
    </g>
  </g>
  <g id="Grupo_4222" data-name="Grupo 4222">
    <g id="Grupo_4221" data-name="Grupo 4221">
      <path id="Caminho_1616" data-name="Caminho 1616" class="cls-1" d="M61.918,0A17.918,17.918,0,1,0,79.837,17.918,17.939,17.939,0,0,0,61.918,0Zm0,31.467A13.548,13.548,0,1,1,75.467,17.918,13.563,13.563,0,0,1,61.918,31.467Z" transform="translate(-44 0)"/>
    </g>
  </g>
</svg>
