<svg xmlns="http://www.w3.org/2000/svg" width="90.735" height="90.735" viewBox="0 0 90.735 90.735">
  <defs>
    <style>
      .cls-1 {
        fill: #46485f;
        stroke: #474661;
      }
    </style>
  </defs>
  <path id="Caminho_1594" data-name="Caminho 1594" class="cls-1" d="M71.788,35.894A17.947,17.947,0,1,0,55.542,10.371L50.736,8.6a7.274,7.274,0,0,0,.114-1.119,7.543,7.543,0,1,0-1.143,3.927l4.8,1.771a17.62,17.62,0,0,0,.245,10.378L38.3,30.525a17.861,17.861,0,0,0-22.194-8.414l-4.137-8.694a7.44,7.44,0,1,0-4.493,1.539,7.346,7.346,0,0,0,1.8-.244L13.408,23.4a17.916,17.916,0,0,0-.958,30.392L9.714,58.706a7.4,7.4,0,0,0-2.236-.378,7.567,7.567,0,1,0,4.85,1.834l2.741-4.928a17.8,17.8,0,0,0,18.27-2.129l5.887,6.476A17.861,17.861,0,0,0,34.4,71.788a18.065,18.065,0,0,0,.223,2.684L27.7,76.117a7.434,7.434,0,1,0,.721,3.15c0-.082-.023-.16-.024-.242L35.3,77.385A17.94,17.94,0,1,0,68.152,63.3l8.785-5.712a7.625,7.625,0,1,0-1.624-2.512L66.508,60.8a18.047,18.047,0,0,0-6.684-5.309l7.3-20.236A17.886,17.886,0,0,0,71.788,35.894ZM43.372,11.965a4.487,4.487,0,1,1,4.487-4.487A4.493,4.493,0,0,1,43.372,11.965ZM2.991,7.478a4.487,4.487,0,1,1,4.487,4.487A4.493,4.493,0,0,1,2.991,7.478ZM7.478,70.293a4.487,4.487,0,1,1,4.487-4.487A4.493,4.493,0,0,1,7.478,70.293Zm13.46,13.46a4.487,4.487,0,1,1,4.487-4.487A4.493,4.493,0,0,1,20.938,83.753ZM82.257,47.859a4.487,4.487,0,1,1-4.487,4.487A4.493,4.493,0,0,1,82.257,47.859ZM62.981,30.008a7.5,7.5,0,0,1,7.312-6.078h2.991A7.5,7.5,0,0,1,80.6,30.008a14.844,14.844,0,0,1-17.615,0Zm8.808-9.069a4.487,4.487,0,1,1,4.487-4.487A4.493,4.493,0,0,1,71.788,20.938Zm0-17.947A14.934,14.934,0,0,1,83.077,27.727a10.6,10.6,0,0,0-5.955-6.05,7.478,7.478,0,1,0-10.666,0,10.6,10.6,0,0,0-5.955,6.05A14.934,14.934,0,0,1,71.788,2.991ZM7.478,38.885a14.956,14.956,0,1,1,26.224,9.8,10.6,10.6,0,0,0-5.963-6.074,7.479,7.479,0,1,0-10.668,0,10.591,10.591,0,0,0-5.948,6.026A14.877,14.877,0,0,1,7.478,38.885Zm10.439-1.5A4.487,4.487,0,1,1,22.4,41.877,4.493,4.493,0,0,1,17.917,37.39ZM13.6,50.926a7.5,7.5,0,0,1,7.307-6.058H23.9a7.5,7.5,0,0,1,7.315,6.1A14.841,14.841,0,0,1,13.6,50.926Zm29.912,32.9a7.5,7.5,0,0,1,7.307-6.058h2.991a7.5,7.5,0,0,1,7.315,6.1,14.84,14.84,0,0,1-17.613-.039Zm8.8-9.049A4.487,4.487,0,1,1,56.8,70.293,4.493,4.493,0,0,1,52.316,74.779ZM67.3,71.788a14.88,14.88,0,0,1-3.688,9.8,10.6,10.6,0,0,0-5.963-6.074,7.479,7.479,0,1,0-10.668,0,10.592,10.592,0,0,0-5.948,6.026A14.948,14.948,0,1,1,67.3,71.788ZM57.011,54.478A17.7,17.7,0,0,0,41.44,57.569l-5.887-6.476a17.817,17.817,0,0,0,3.919-17.814L55.92,26.307a18.044,18.044,0,0,0,8.392,7.934Z" transform="translate(0.5 0.5)"/>
</svg>
