<svg xmlns="http://www.w3.org/2000/svg" width="80.234" height="89.191" viewBox="0 0 80.234 89.191">
  <defs>
    <style>
      .cls-1 {
        fill: #46485f;
        stroke: #474661;
      }
    </style>
  </defs>
  <g id="Grupo_4184" data-name="Grupo 4184" transform="translate(-25.5 0.5)">
    <g id="Grupo_4183" data-name="Grupo 4183" transform="translate(26)">
      <path id="Caminho_1589" data-name="Caminho 1589" class="cls-1" d="M105.234,52.329A15.046,15.046,0,0,0,98.7,39.856,13.3,13.3,0,0,0,95.18,20.22,10.622,10.622,0,0,0,82.624,7.761,9.437,9.437,0,0,0,65.617,4.009,9.437,9.437,0,0,0,48.61,7.762q-.45-.092-.909-.146a1.722,1.722,0,1,0-.4,3.422,7.106,7.106,0,0,1,2.139.6l.021.011a7.128,7.128,0,0,1,3.206,2.925,1.723,1.723,0,0,0,2.984-1.722A10.546,10.546,0,0,0,51.92,9.055a5.994,5.994,0,0,1,11.975.384V44.6a13.189,13.189,0,0,1-7.677-3.78,1.723,1.723,0,1,0-2.436,2.436,16.61,16.61,0,0,0,10.113,4.815v28.3a8.371,8.371,0,0,1-15.808,3.844,13.3,13.3,0,0,0,2.852-.438,1.723,1.723,0,1,0-.892-3.327,9.894,9.894,0,0,1-4.142.206l-.013,0a9.8,9.8,0,0,1-8.244-9.583,15.141,15.141,0,0,0,7.434-.1,1.722,1.722,0,1,0-.891-3.327,11.714,11.714,0,0,1-7.422-.455l-.035-.012A11.716,11.716,0,0,1,36,41.813l.03-.013a11.736,11.736,0,0,1,2.1-.785,1.722,1.722,0,1,0-.891-3.328,15.189,15.189,0,0,0-1.581.522,9.848,9.848,0,0,1,1.655-14.7,10.612,10.612,0,0,0,3.85,3.83,1.722,1.722,0,0,0,1.722-2.983A7.169,7.169,0,0,1,39.7,20.521c0-.007-.006-.013-.008-.02a7.14,7.14,0,0,1-.345-1.506,1.722,1.722,0,0,0-3.422.4c.032.276.076.552.13.826a13.3,13.3,0,0,0-3.52,19.637,15.167,15.167,0,0,0,1.711,25.967c-.031.37-.047.742-.047,1.113A13.3,13.3,0,0,0,44.22,79.825a11.816,11.816,0,0,0,21.4,2.688,11.816,11.816,0,0,0,21.4-2.688A13.3,13.3,0,0,0,97.035,66.936c0-.371-.016-.743-.047-1.113a15.092,15.092,0,0,0,8.246-13.494ZM94.467,63.191A1.722,1.722,0,0,0,93.42,65.1a9.955,9.955,0,0,1,.17,1.831,9.807,9.807,0,0,1-8.257,9.723,1.722,1.722,0,0,0-1.413,1.363,8.372,8.372,0,0,1-16.58-1.648V69.249h2.224l1.727,1.727a5.167,5.167,0,1,0,2.436-2.436l-2.231-2.231a1.723,1.723,0,0,0-1.218-.5H67.34V60.217H73a5.169,5.169,0,1,0,0-3.445H67.34V48.16H84.4l1.724,1.725a5.172,5.172,0,1,0,2.438-2.434l-2.231-2.231a1.723,1.723,0,0,0-1.218-.5H67.34V39.334H80.91a1.723,1.723,0,0,0,1.218-.5L84.356,36.6a5.161,5.161,0,1,0-2.436-2.436L80.2,35.889H67.34V27.836h5.044a1.723,1.723,0,0,0,1.218-.5L75.83,25.1a5.161,5.161,0,1,0-2.436-2.436L71.67,24.391H67.34V9.439a5.994,5.994,0,1,1,11.989,0v.642a1.722,1.722,0,0,0,2.444,1.564,7.17,7.17,0,0,1,9.764,8.877,1.722,1.722,0,0,0,.9,2.13,9.854,9.854,0,0,1,2.386,16.309,1.722,1.722,0,0,0,.387,2.836,11.717,11.717,0,0,1-.742,21.393Zm-18.514,8.29a1.722,1.722,0,1,1-1.218.5,1.717,1.717,0,0,1,1.218-.5Zm.7-14.2a1.723,1.723,0,1,1,0,2.436A1.725,1.725,0,0,1,76.656,57.277ZM89.575,50.9a1.722,1.722,0,1,1-.5,1.218A1.717,1.717,0,0,1,89.575,50.9ZM85.367,33.154a1.722,1.722,0,1,1,1.218.5A1.711,1.711,0,0,1,85.367,33.154Zm-8.526-11.5h0a1.722,1.722,0,1,1,1.218.5A1.711,1.711,0,0,1,76.841,21.656Z" transform="translate(-26)"/>
      <path id="Caminho_1590" data-name="Caminho 1590" class="cls-1" d="M112.5,200.591a5.33,5.33,0,0,1-3.944,5.141,1.722,1.722,0,1,0,.892,3.328,8.767,8.767,0,0,0,5.323-12.851,1.722,1.722,0,1,0-2.983,1.722,5.332,5.332,0,0,1,.713,2.661Z" transform="translate(-93.282 -161.698)"/>
      <path id="Caminho_1591" data-name="Caminho 1591" class="cls-1" d="M150.365,337.2a1.72,1.72,0,0,0,2.11-1.218,8.766,8.766,0,0,0-8.468-11.036,1.723,1.723,0,0,0,0,3.445,5.321,5.321,0,0,1,5.14,6.7,1.723,1.723,0,0,0,1.218,2.11Z" transform="translate(-122.254 -268.972)"/>
      <path id="Caminho_1592" data-name="Caminho 1592" class="cls-1" d="M165.456,118.336a1.723,1.723,0,0,0-2.436-2.436,5.322,5.322,0,0,1-7.526,0,1.723,1.723,0,1,0-2.436,2.436,8.767,8.767,0,0,0,12.4,0Z" transform="translate(-130.754 -95.519)"/>
      <path id="Caminho_1593" data-name="Caminho 1593" class="cls-1" d="M100.034,62.358a1.722,1.722,0,0,0,0-3.445h0a1.722,1.722,0,0,0,0,3.445Z" transform="translate(-85.856 -48.765)"/>
    </g>
  </g>
</svg>
