<svg xmlns="http://www.w3.org/2000/svg" width="101.916" height="89.672" viewBox="0 0 101.916 89.672">
  <defs>
    <style>
      .cls-1 {
        fill: #46485f;
        stroke: #474661;
      }
    </style>
  </defs>
  <g id="Grupo_4187" data-name="Grupo 4187" transform="translate(0.513 -30.506)">
    <path id="Caminho_1605" data-name="Caminho 1605" class="cls-1" d="M247.966,44.985a1.971,1.971,0,0,0,1.971-1.971V32.977a1.971,1.971,0,1,0-3.941,0V43.014A1.971,1.971,0,0,0,247.966,44.985Z" transform="translate(-197.521)"/>
    <path id="Caminho_1606" data-name="Caminho 1606" class="cls-1" d="M158.181,72.117a1.97,1.97,0,1,0,3.334-2.1l-5.25-8.33a1.97,1.97,0,1,0-3.334,2.1Z" transform="translate(-122.552 -23.895)"/>
    <path id="Caminho_1607" data-name="Caminho 1607" class="cls-1" d="M313.668,72.734a1.97,1.97,0,0,0,2.717-.618l5.245-8.33a1.971,1.971,0,1,0-3.335-2.1l-5.245,8.33A1.971,1.971,0,0,0,313.668,72.734Z" transform="translate(-251.119 -23.895)"/>
    <path id="Caminho_1608" data-name="Caminho 1608" class="cls-1" d="M100.256,146.688l-3.424-6.049A1.97,1.97,0,0,0,93.4,142.58l3.422,6.046a.972.972,0,0,1,.085.744.929.929,0,0,1-.441.564l-5.277,2.923a1,1,0,0,1-1.336-.355l-1.341-2.371L88.5,150.1,74.64,125.588a.96.96,0,0,1-.087-.737.923.923,0,0,1,.439-.561l5.283-2.923a.981.981,0,0,1,1.331.357l3.089,5.457a1.97,1.97,0,1,0,3.43-1.941l-3.087-5.455a4.933,4.933,0,0,0-6.669-1.866l-5.283,2.923a4.9,4.9,0,0,0-1.991,6.471l-2.91.843a11.458,11.458,0,0,1-2.41.553h0a4.919,4.919,0,0,1-1.5-.45c-.406-.154-.911-.345-1.533-.562l-5.156-1.8a11.813,11.813,0,0,0-6-.772l-8.792.787c-4.008.355-6.563,1.259-7.974,2.827l-5.01-1.452a4.894,4.894,0,0,0-2-6.442l-5.28-2.925a4.936,4.936,0,0,0-6.673,1.865L.64,146.685a4.9,4.9,0,0,0,1.87,6.7l5.28,2.924a4.941,4.941,0,0,0,6.673-1.865l.558-.987a9.255,9.255,0,0,1,3.672,2.8,6.614,6.614,0,0,0,4.276,10.868,6.607,6.607,0,0,0,5.817,7.266,6.6,6.6,0,0,0,5.817,7.267,6.627,6.627,0,0,0,10.727,5.865l4.126-3.3a6.642,6.642,0,0,0,.893-.862l2.357,1.883a6.621,6.621,0,0,0,10.637-3.9,6.587,6.587,0,0,0,2.158.361,6.812,6.812,0,0,0,.75-.042,6.611,6.611,0,0,0,5.854-7.272,6.6,6.6,0,0,0,5.817-7.266A6.624,6.624,0,0,0,82.2,156.251a9.217,9.217,0,0,1,3.668-2.8l.559.989a4.942,4.942,0,0,0,6.674,1.863l5.277-2.923a4.908,4.908,0,0,0,1.878-6.7ZM11.033,152.5a1,1,0,0,1-1.335.357l-5.28-2.924a.927.927,0,0,1-.438-.563.967.967,0,0,1,.089-.744l15.216-26.908a.962.962,0,0,1,.843-.482,1.011,1.011,0,0,1,.49.127L25.9,124.29h0a.923.923,0,0,1,.438.561.962.962,0,0,1-.089.74Zm14.38,10.14a2.682,2.682,0,0,1-3.352-4.188l7.377-5.9a2.694,2.694,0,0,1,3.778.421,2.684,2.684,0,0,1-.42,3.761c-.012.01-.023.02-.034.031l-7.347,5.87Zm2.042,6.844a2.691,2.691,0,0,1,.419-3.767h0l10.626-8.49a2.692,2.692,0,0,1,3.778.422,2.692,2.692,0,0,1-.422,3.769l-10.624,8.487a2.694,2.694,0,0,1-3.78-.419Zm7.618,8.255a2.681,2.681,0,0,1-1.38-4.755h0l7.354-5.875.027-.019a2.692,2.692,0,0,1,3.776.418,2.691,2.691,0,0,1-.423,3.769l-7.377,5.9a2.675,2.675,0,0,1-1.977.566Zm12.911,1.6a2.66,2.66,0,0,1-.988,1.8l-4.126,3.3a2.693,2.693,0,0,1-3.78-.419,2.69,2.69,0,0,1,.418-3.766h0l4.125-3.3.007,0a2.694,2.694,0,0,1,3.778.422A2.654,2.654,0,0,1,47.984,179.341Zm31.268-17.117a2.7,2.7,0,0,1-3.776.418h0L70.2,158.428a1.97,1.97,0,0,0-2.46,3.079l5.271,4.211a2.682,2.682,0,1,1-3.354,4.187l-5.719-4.564a1.97,1.97,0,1,0-2.458,3.08l5.717,4.562a2.686,2.686,0,0,1-3.358,4.193L60.995,174.9l-.014-.012-2.4-1.922-.449-.359a1.97,1.97,0,0,0-2.461,3.078l2.861,2.288a2.684,2.684,0,0,1-3.361,4.186l-3.246-2.594a6.594,6.594,0,0,0-3.788-6.513,6.613,6.613,0,0,0-2.568-9.863,6.624,6.624,0,0,0-7.975-9.96,6.572,6.572,0,0,0-1.294-2.712,6.641,6.641,0,0,0-9.315-1.039L21.7,153.7a12.984,12.984,0,0,0-4.733-3.686l10.854-19.2,5.779,1.674a6.446,6.446,0,0,0,.16.979c1.4,5.752,6.695,8.432,13.821,7,6-1.208,8.476.592,13.4,4.177.511.372,1.041.758,1.6,1.156,3.54,2.54,7.324,5.526,9.861,7.549l6.4,5.112a2.691,2.691,0,0,1,.417,3.769Zm-.061-8.53L74.9,150.264c-2.572-2.052-6.409-5.079-10.024-7.673-.548-.392-1.07-.773-1.573-1.139-5.1-3.717-8.794-6.4-16.5-4.854-2.358.475-7.974,1.031-9.213-4.063-.175-.719,0-.966.078-1.072.263-.367,1.324-1.261,5.471-1.629l8.8-.788a8.07,8.07,0,0,1,4.342.568l5.157,1.8c.573.2,1.032.374,1.436.527,2.483.941,3.141.94,6.4,0l3.8-1.1L83.92,150.011A12.948,12.948,0,0,0,79.19,153.694Z" transform="translate(0 -69.29)"/>
    <path id="Caminho_1609" data-name="Caminho 1609" class="cls-1" d="M452.541,195.528a1.972,1.972,0,1,0-1.971-1.974v.006A1.968,1.968,0,0,0,452.541,195.528Z" transform="translate(-361.784 -128.935)"/>
  </g>
</svg>
