<svg xmlns="http://www.w3.org/2000/svg" width="73.379" height="89.786" viewBox="0 0 73.379 89.786">
  <defs>
    <style>
      .cls-1 {
        fill: #46485f;
      }
    </style>
  </defs>
  <path id="Caminho_1587" data-name="Caminho 1587" class="cls-1" d="M371.5,10.851a15.443,15.443,0,0,0-15.426,15.426v10A10.206,10.206,0,0,1,350.7,45.29V15.7A7.945,7.945,0,0,0,348.948,0H336.563a7.945,7.945,0,0,0-1.754,15.695V45.289a10.2,10.2,0,0,1-5.373-9.01v-10a15.443,15.443,0,0,0-15.426-15.426,7.945,7.945,0,0,0-.464,15.876v9.552a26.16,26.16,0,0,0,21.263,25.664V74.091a7.945,7.945,0,0,0,1.754,15.695h12.384a7.945,7.945,0,0,0,1.751-15.7V61.944a25.856,25.856,0,0,0,6.663-2.227A2.673,2.673,0,1,0,355,54.922a20.556,20.556,0,0,1-7.219,2.039,2.674,2.674,0,0,0-2.426,2.662l-.012,16.766a2.673,2.673,0,0,0,2.667,2.853h.94a2.6,2.6,0,1,1,0,5.2H336.563a2.6,2.6,0,0,1,0-5.2h.937a2.672,2.672,0,0,0,2.667-2.853l-.012-16.767a2.674,2.674,0,0,0-2.426-2.662,20.806,20.806,0,0,1-18.837-20.682v-10a4.888,4.888,0,0,0-4.882-4.882,2.6,2.6,0,1,1,0-5.2A10.091,10.091,0,0,1,324.09,26.277v10A15.538,15.538,0,0,0,337.031,51.63,2.673,2.673,0,0,0,340.156,49V13.216a2.673,2.673,0,0,0-2.673-2.673h-.919a2.6,2.6,0,1,1,0-5.2h12.384a2.6,2.6,0,0,1,0,5.2h-.922a2.673,2.673,0,0,0-2.673,2.673V49a2.673,2.673,0,0,0,3.124,2.635,15.538,15.538,0,0,0,12.944-15.352v-10A10.091,10.091,0,0,1,371.5,16.2a2.6,2.6,0,0,1,0,5.2,4.888,4.888,0,0,0-4.882,4.882v10a20.621,20.621,0,0,1-3.672,11.778,2.673,2.673,0,1,0,4.4,3.04,25.941,25.941,0,0,0,4.621-14.818V26.727a7.945,7.945,0,0,0-.464-15.877Z" transform="translate(-306.066)"/>
</svg>
