<svg xmlns="http://www.w3.org/2000/svg" width="79.119" height="90.02" viewBox="0 0 79.119 90.02">
  <defs>
    <style>
      .cls-1 {
        fill: #5f5f5f;
      }
    </style>
  </defs>
  <g id="Grupo_4182" data-name="Grupo 4182" transform="translate(283.44 0.99)">
    <path id="Caminho_1588" data-name="Caminho 1588" class="cls-1" d="M41.963,70.556a16.574,16.574,0,0,0-.414,3.64,15.819,15.819,0,0,0,29.01,8.737A15.819,15.819,0,0,0,99.57,74.2a16.574,16.574,0,0,0-.414-3.64,15.75,15.75,0,0,0,10.963-15,15.591,15.591,0,0,0-4.073-10.549,15.591,15.591,0,0,0,4.073-10.549,15.75,15.75,0,0,0-10.963-15,16.574,16.574,0,0,0,.414-3.64,15.819,15.819,0,0,0-29.01-8.737,15.819,15.819,0,0,0-29.01,8.737,16.574,16.574,0,0,0,.414,3.64A15.75,15.75,0,0,0,31,34.461,15.591,15.591,0,0,0,35.073,45.01,15.591,15.591,0,0,0,31,55.559,15.75,15.75,0,0,0,41.963,70.556Zm52.315-4.448H89.02v5.275h4.907a11.4,11.4,0,0,1,.368,2.813,10.549,10.549,0,0,1-21.1,0V63.471H65.285a2.637,2.637,0,0,1,0-5.275H73.2V47.647h5.275v2.637a7.912,7.912,0,0,0,15.824,0V47.647H101.2a10.408,10.408,0,0,1,3.641,7.912C104.844,65.922,94.391,66.052,94.277,66.108ZM83.746,5.275A10.561,10.561,0,0,1,94.295,15.824a11.4,11.4,0,0,1-.368,2.813H89.02v5.275h5.257c.018.009,10.567.546,10.567,10.549a10.407,10.407,0,0,1-3.641,7.912H89.02v7.912a2.637,2.637,0,0,1-5.275,0V42.372H73.2V37.1h2.637a7.912,7.912,0,1,0,0-15.824H73.2v-5.45A10.561,10.561,0,0,1,83.746,5.275Zm-36.9,18.637H52.1V18.637H47.192a11.4,11.4,0,0,1-.368-2.813,10.549,10.549,0,0,1,21.1,0V26.549h7.912a2.637,2.637,0,0,1,0,5.275H67.922V42.372H62.647V39.735a7.912,7.912,0,0,0-15.824,0v2.637H39.916a10.407,10.407,0,0,1-3.641-7.912C36.275,24.1,46.728,23.967,46.841,23.911ZM39.916,47.647H52.1V39.735a2.637,2.637,0,0,1,5.275,0v7.912H67.922v5.275H65.285a7.912,7.912,0,0,0,0,15.824h2.637V74.2a10.549,10.549,0,0,1-21.1,0,11.4,11.4,0,0,1,.368-2.813H52.1V66.108H46.841c-.018-.009-10.567-.546-10.567-10.549A10.408,10.408,0,0,1,39.916,47.647Z" transform="translate(-314.44 -0.99)"/>
  </g>
</svg>
