<svg xmlns="http://www.w3.org/2000/svg" width="67.193" height="67.193" viewBox="0 0 67.193 67.193">
  <defs>
    <style>
      .cls-1 {
        fill: #37639e;
        stroke: #305ea3;
        stroke-width: 1.5px;
      }
    </style>
  </defs>
  <g id="Grupo_4211" data-name="Grupo 4211" transform="translate(0.75 0.75)">
    <g id="Grupo_4212" data-name="Grupo 4212" transform="translate(12.889 12.889)">
      <g id="Grupo_4211-2" data-name="Grupo 4211">
        <path id="Caminho_1612" data-name="Caminho 1612" class="cls-1" d="M116.122,90h-9.2v-9.2A2.339,2.339,0,0,0,104.6,78.48H92.328A2.339,2.339,0,0,0,90,80.806V90h-9.2a2.339,2.339,0,0,0-2.326,2.326v12.206a2.339,2.339,0,0,0,2.326,2.326H90v9.2a2.339,2.339,0,0,0,2.326,2.326h12.206a2.339,2.339,0,0,0,2.326-2.326v-9.2h9.2a2.339,2.339,0,0,0,2.326-2.326V92.328A2.339,2.339,0,0,0,116.122,90Zm-.3,14.242H105.559a1.314,1.314,0,0,0-1.314,1.314V115.82H92.63V105.559a1.314,1.314,0,0,0-1.314-1.314H81.055V92.63H91.316a1.314,1.314,0,0,0,1.314-1.314V81.055h11.615V91.316a1.314,1.314,0,0,0,1.314,1.314H115.82Z" transform="translate(-78.48 -78.48)"/>
      </g>
    </g>
    <g id="Grupo_4214" data-name="Grupo 4214">
      <g id="Grupo_4213" data-name="Grupo 4213">
        <path id="Caminho_1613" data-name="Caminho 1613" class="cls-1" d="M32.847,0A32.847,32.847,0,1,0,65.693,32.847,32.847,32.847,0,0,0,32.847,0Zm0,63.066A30.219,30.219,0,1,1,63.066,32.847,30.219,30.219,0,0,1,32.847,63.066Z"/>
      </g>
    </g>
  </g>
</svg>
