<svg id="Grupo_4223" data-name="Grupo 4223" xmlns="http://www.w3.org/2000/svg" width="89.189" height="64.746" viewBox="0 0 89.189 64.746">
  <defs>
    <style>
      .cls-1 {
        fill: #37639e;
      }
    </style>
  </defs>
  <path id="Caminho_1617" data-name="Caminho 1617" class="cls-1" d="M-337.1,10.214-338.681-.868c-.64-4.2-4.394-7.626-8.368-7.626h-.547a8.2,8.2,0,0,0,4.308-7.216,8.184,8.184,0,0,0-8.161-8.188,8.184,8.184,0,0,0-8.16,8.188A8.2,8.2,0,0,0-355.3-8.493h-.547c-3.974,0-7.729,3.421-8.371,7.643L-365.8,10.214a1.853,1.853,0,0,0,.859,1.838l4.2,2.6,2.058,14.427a4.638,4.638,0,0,0,4.434,4.064h5.6a4.638,4.638,0,0,0,4.434-4.064l2.057-14.427,4.2-2.6A1.854,1.854,0,0,0-337.1,10.214Zm-14.351-30.4A4.472,4.472,0,0,1-347-15.71a4.472,4.472,0,0,1-4.453,4.481A4.472,4.472,0,0,1-355.9-15.71,4.472,4.472,0,0,1-351.449-20.19Zm6.6,32.149a1.853,1.853,0,0,0-.859,1.314l-2.181,15.295,0,.021a.981.981,0,0,1-.759.849h-5.6a.981.981,0,0,1-.759-.849l0-.021-2.181-15.295a1.853,1.853,0,0,0-.859-1.314l-3.908-2.421,1.407-9.848c.369-2.426,2.523-4.476,4.7-4.476h8.8a5.226,5.226,0,0,1,4.7,4.459l1.41,9.865Z" transform="translate(396.044 31.6)"/>
  <path id="Caminho_1618" data-name="Caminho 1618" class="cls-1" d="M-179.734-29.888l-1.583-11.082c-.64-4.2-4.394-7.626-8.368-7.626h-.547a8.2,8.2,0,0,0,4.308-7.216A8.184,8.184,0,0,0-194.085-64a8.184,8.184,0,0,0-8.16,8.188,8.2,8.2,0,0,0,4.308,7.216h-.547c-3.974,0-7.729,3.421-8.371,7.643l-1.581,11.065a1.853,1.853,0,0,0,.859,1.838l4.2,2.6,2.058,14.427a4.638,4.638,0,0,0,4.434,4.064h5.6a4.638,4.638,0,0,0,4.434-4.064l2.057-14.427,4.2-2.6A1.854,1.854,0,0,0-179.734-29.888Zm-14.351-30.4a4.472,4.472,0,0,1,4.452,4.48,4.472,4.472,0,0,1-4.452,4.481,4.472,4.472,0,0,1-4.452-4.481A4.472,4.472,0,0,1-194.085-60.292Zm6.6,32.149a1.853,1.853,0,0,0-.859,1.314l-2.181,15.295,0,.021a.981.981,0,0,1-.759.849h-5.6a.981.981,0,0,1-.759-.849l0-.021-2.181-15.295a1.853,1.853,0,0,0-.859-1.314l-3.908-2.421,1.407-9.848c.369-2.426,2.523-4.476,4.7-4.476h8.8a5.226,5.226,0,0,1,4.7,4.459l1.41,9.865Z" transform="translate(268.904 64)"/>
  <path id="Caminho_1619" data-name="Caminho 1619" class="cls-1" d="M-494.463-29.888l-1.583-11.082c-.64-4.2-4.394-7.626-8.368-7.626h-.547a8.2,8.2,0,0,0,4.308-7.216A8.184,8.184,0,0,0-508.814-64a8.184,8.184,0,0,0-8.16,8.188,8.2,8.2,0,0,0,4.308,7.216h-.547c-3.974,0-7.729,3.421-8.371,7.643l-1.581,11.065a1.853,1.853,0,0,0,.859,1.838l4.2,2.6,2.058,14.427a4.638,4.638,0,0,0,4.434,4.064h5.6a4.638,4.638,0,0,0,4.434-4.064l2.057-14.427,4.2-2.6A1.853,1.853,0,0,0-494.463-29.888Zm-14.351-30.4a4.472,4.472,0,0,1,4.453,4.48,4.472,4.472,0,0,1-4.453,4.481,4.472,4.472,0,0,1-4.453-4.481A4.472,4.472,0,0,1-508.814-60.292Zm6.6,32.149a1.853,1.853,0,0,0-.859,1.314l-2.181,15.295,0,.021a.981.981,0,0,1-.759.849h-5.6a.981.981,0,0,1-.759-.849l0-.021-2.181-15.295a1.853,1.853,0,0,0-.859-1.314l-3.908-2.421,1.407-9.848c.369-2.426,2.523-4.476,4.7-4.476h8.8a5.226,5.226,0,0,1,4.7,4.459l1.41,9.865Z" transform="translate(523.184 64)"/>
</svg>
