<svg xmlns="http://www.w3.org/2000/svg" width="41.433" height="37.019" viewBox="0 0 41.433 37.019">
  <defs>
    <style>
      .cls-1 {
        fill: #223854;
        stroke: rgba(0,0,0,0);
        stroke-miterlimit: 10;
      }
    </style>
  </defs>
  <path id="Subtração_6" data-name="Subtração 6" class="cls-1" d="M20.217,36.019a2.5,2.5,0,0,1-1.223-.321A63.134,63.134,0,0,1,9.735,29.09C3.275,23.5,0,18.012,0,12.777A12.8,12.8,0,0,1,3.806,3.536,12.236,12.236,0,0,1,12.267,0a10.959,10.959,0,0,1,7.949,3.411A10.963,10.963,0,0,1,28.168,0a12.236,12.236,0,0,1,8.459,3.532,12.8,12.8,0,0,1,3.806,9.244c0,5.235-3.275,10.724-9.735,16.314A63.134,63.134,0,0,1,21.439,35.7,2.5,2.5,0,0,1,20.217,36.019ZM15.954,22.683v2.486a4.032,4.032,0,1,0,8.063,0V22.683Zm8.064-9.105v8.209h2.442a4.1,4.1,0,0,0,0-8.209Zm-7.055,0v8.209h6.046V13.578Zm-3.45,0a4.1,4.1,0,0,0,0,8.209h2.442V13.578Zm6.473-7.373a4.073,4.073,0,0,0-4.032,4.1V12.8h8.063V10.31A4.073,4.073,0,0,0,19.986,6.205ZM18.47,19.75a.514.514,0,1,1,.5-.513A.509.509,0,0,1,18.47,19.75Zm3.026,0a.513.513,0,1,1,.5-.513A.509.509,0,0,1,21.5,19.748ZM19.968,18.2a.514.514,0,1,1,.505-.514A.51.51,0,0,1,19.968,18.2ZM21.5,16.671a.514.514,0,1,1,.5-.514A.51.51,0,0,1,21.5,16.671Zm-3.031,0a.507.507,0,1,1,.355-.148A.5.5,0,0,1,18.465,16.667Z" transform="translate(0.5 0.5)"/>
</svg>
